<?xml version="1.0" encoding="UTF-8"?>
<svg id="Layer_2" data-name="Layer 2" xmlns="http://www.w3.org/2000/svg" viewBox="0 0 1401.05 505.47">
  <defs>
    <style>
      .cls-1 {
        fill: #6a4ee1;
        stroke-width: 0px;
      }
    </style>
  </defs>
  <g id="Layer_1-2" data-name="Layer 1">
    <path class="cls-1" d="M63.08,184.51h0c-13.95,0-25.27,11.31-25.27,25.27v136.14s0,1.16,0,1.16v42.39s-.45,20.53-7.65,28.59c-2.92,3.03-9.02,6.72-14.21,9.63-2.08.8-4.03,1.87-5.8,3.16,0,0,0,0-.01,0,0,0,0,0,0,0C4,435.38,0,442.66,0,450.89c0,13.72,11.13,24.85,24.85,24.85,3.58,0,6.99-.76,10.06-2.13h0s19.36-6.85,33.99-24.72c11.47-18.2,13.3-25.18,16.12-39.98,2.13-12.62,3.29-33.48,3.32-61.77,0-.02,0-.04,0-.06v-137.3c0-13.95-11.31-25.27-25.27-25.27ZM300.54,300.87v-91.09c0-13.95-11.31-25.27-25.27-25.27h0c-13.95,0-25.27,11.31-25.27,25.27v114.65s2.28,34.16-40.6,34.41c-42.89-.25-40.6-34.41-40.6-34.41v-114.65c0-13.95-11.31-25.27-25.27-25.27h0c-13.95,0-25.27,11.31-25.27,25.27v91.09c-1.37,50,6.11,57.72,11.6,68.44,20.7,37.9,79.54,35.16,79.54,35.16,0,0,58.85,2.74,79.54-35.16,5.49-10.72,12.97-18.45,11.6-68.44ZM520.44,275.19c.06-3.99.1-149.86.1-149.86,0-13.95-11.31-25.27-25.27-25.27h0c-13.95,0-25.27,11.31-25.27,25.27v73.86c-8.49-6.49-23.16-15.09-43.09-17.02-4.3-.42-8.84-.52-13.62-.23,0,0-79.18-2.08-86.44,91.3-.2,2.56-.27,5.13-.29,7.7-.14,16.63-4.88,75,36.87,106.32,11.55,8.67,25.3,13.92,39.62,15.8,6.48.85,14.76,1.56,23.93,1.42,23.74-.35,53.44-6.33,73.45-29.92,6.84-8.28,20.12-17.86,20.02-99.37ZM428.05,361.6s-48.82,5.5-52.05-52.54c-.16-2.91-.32-5.82-.52-8.72-1.43-21.15-1.28-77.88,51.49-75.56,14.76.36,33.84,9.36,43.92,23.4v61.57s1.8,50.76-42.84,51.85ZM772.48,310.9c-.06,3.99-.1,139.57-.1,139.57,0,13.95,11.31,25.27,25.27,25.27h0c13.95,0,25.27-11.31,25.27-25.27v-63.58c8.49,6.49,23.16,15.09,43.09,17.02,4.3.42,8.84.52,13.62.23,0,0,79.18,2.08,86.44-91.3.2-2.56.27-5.13.29-7.7.14-16.63,4.88-75-36.87-106.32-11.55-8.67-25.3-13.92-39.62-15.8-6.48-.85-14.76-1.56-23.93-1.42-23.74.35-53.44,6.33-73.45,29.92-6.84,8.28-20.12,17.86-20.02,99.37ZM864.87,224.49s48.82-5.5,52.05,52.54c.16,2.91.32,5.82.52,8.72,1.43,21.15,1.28,77.88-51.49,75.56-14.76-.36-33.84-9.36-43.92-23.4v-61.57s-1.8-50.76,42.84-51.85ZM746.08,266.29c-3.4-17.29-10.3-57.06-56.44-77.46-19.55-8.64-43.18-7.15-43.18-7.15,0,0-23.63-1.5-43.18,7.15-46.14,20.4-53.04,60.17-56.44,77.46-3.91,17.12-1.02,44.38,1.02,59.51,6.63,32.25,19.38,45.55,29.07,55.35,27.03,25.43,69.53,23.34,69.53,23.34,0,0,42.5,2.09,69.53-23.34,9.69-9.81,22.44-23.11,29.07-55.35,2.04-15.13,4.93-42.39,1.02-59.51ZM676.47,350.86c-8.04,7.31-19.18,10.63-30.01,11.01-10.84-.39-21.97-3.7-30.01-11.01-18.23-16.59-19.63-41.78-19.63-64.62,0-63.17,49.64-62.33,49.64-62.33,0,0,49.64-.83,49.64,62.33,0,22.84-1.4,48.03-19.63,64.62ZM63.49,96.58c-18.14,0-32.85,14.71-32.85,32.85s14.71,32.85,32.85,32.85c18.14,0,32.85-14.71,32.85-32.85,0-18.14-14.71-32.85-32.85-32.85ZM63.49,0C45.35,0,30.64,14.71,30.64,32.85c0,18.14,14.71,32.85,32.85,32.85s32.85-14.71,32.85-32.85S81.63,0,63.49,0ZM118.1,48.53c-18.14,0-32.85,14.71-32.85,32.85,0,18.14,14.71,32.85,32.85,32.85,18.14,0,32.85-14.71,32.85-32.85,0-18.14-14.71-32.85-32.85-32.85ZM1228.86,467.77c.71,1.68,1.6,3.27,2.64,4.74-.45-.73-.89-1.47-1.3-2.23-.43-.85-.88-1.68-1.34-2.51ZM1400.88,401.83v-192.05c0-13.95-11.31-25.27-25.27-25.27h0c-13.95,0-25.27,11.31-25.27,25.27v114.65s0,.03,0,.06v1.77c-.25,7.1-3.75,32.36-40.61,32.57-42.89-.25-40.6-34.41-40.6-34.41v-114.65c0-13.95-11.31-25.27-25.27-25.27h0c-13.95,0-25.27,11.31-25.27,25.27v91.09c-1.37,50,6.11,57.72,11.6,68.44,20.7,37.9,79.54,35.16,79.54,35.16,0,0,19.89.92,40.61-5.75v26.68s2.28,34.16-40.61,34.4c-19.11-.11-29.25-6.95-34.61-14.51-.51-.93-1.07-1.81-1.69-2.66-4.68-6.44-12.28-10.63-20.85-10.63-14.22,0-25.75,11.53-25.75,25.75,0,3.54.71,6.9,2,9.97.01.02.02.03.02.05.46.83.91,1.66,1.34,2.51.41.76.85,1.5,1.3,2.23,21.73,35.56,78.24,32.92,78.24,32.92,0,0,58.85,2.75,79.54-35.15,5.49-10.72,12.97-18.45,11.6-68.45ZM1159.91,181.59c-11.47,0-21.14,7.64-24.23,18.1-7.45-6.33-24.41-18.1-47.61-18.1l.4.35c-3.38-.2-6.89-.22-10.55,0,0,0-79.18-2.08-86.44,91.3-.2,2.56-.27,5.13-.29,7.7-.14,16.63-4.88,75,36.87,106.32,11.55,8.67,25.3,13.92,39.62,15.8,6.48.85,14.76,1.56,23.93,1.42,15.07-.22,32.54-2.72,48.41-10.55,4.49,6.41,11.92,10.61,20.34,10.61h0c13.71,0,24.82-11.11,24.82-24.82v-172.87c0-13.95-11.31-25.27-25.27-25.27ZM1092.69,361.6s-48.82,5.5-52.05-52.54c-.16-2.91-.32-5.82-.52-8.72-1.43-21.15-1.28-77.88,51.49-75.56,14.76.36,33.84,9.36,43.92,23.4v61.57s1.8,50.77-42.84,51.85Z"/>
  </g>
</svg>