<?xml version="1.0" encoding="UTF-8"?>
<svg id="Layer_1" data-name="Layer 1" xmlns="http://www.w3.org/2000/svg" viewBox="0 0 29 29">
  <defs>
    <style>
      .cls-1 {
        fill: #f4f1f2;
      }
    </style>
  </defs>
  <path class="cls-1" d="m24.15,29H4.85c-2.67,0-4.85-2.17-4.85-4.85V4.85C0,2.17,2.17,0,4.85,0h19.31c2.67,0,4.85,2.17,4.85,4.85v19.31c0,2.67-2.17,4.85-4.85,4.85ZM4.85,1.59c-1.8,0-3.26,1.46-3.26,3.26v19.31c0,1.8,1.46,3.26,3.26,3.26h19.31c1.8,0,3.26-1.46,3.26-3.26V4.85c0-1.8-1.46-3.26-3.26-3.26H4.85Z"/>
  <path class="cls-1" d="m14.5,21.94c-1.99,0-3.86-.77-5.26-2.18s-2.18-3.27-2.18-5.26.77-3.86,2.18-5.26,3.27-2.18,5.26-2.18,3.86.77,5.26,2.18,2.18,3.27,2.18,5.26-.77,3.86-2.18,5.26-3.27,2.18-5.26,2.18Zm0-13.29c-3.23,0-5.85,2.63-5.85,5.85s2.63,5.85,5.85,5.85,5.85-2.63,5.85-5.85-2.63-5.85-5.85-5.85Z"/>
  <circle class="cls-1" cx="23.73" cy="4.03" r="1.43"/>
</svg>