<svg width="24" height="25" viewBox="0 0 24 25" fill="none" xmlns="http://www.w3.org/2000/svg">
<path d="M12 1.16113L21.05 6.56113C21.35 6.74447 21.5833 6.99447 21.75 7.31113C21.9167 7.6278 22 7.96113 22 8.31113V19.1611C22 19.7111 21.8042 20.182 21.4125 20.5736C21.0208 20.9653 20.55 21.1611 20 21.1611H4C3.45 21.1611 2.97917 20.9653 2.5875 20.5736C2.19583 20.182 2 19.7111 2 19.1611V8.31113C2 7.96113 2.08333 7.6278 2.25 7.31113C2.41667 6.99447 2.65 6.74447 2.95 6.56113L12 1.16113ZM12 12.8111L19.8 8.16113L12 3.51113L4.2 8.16113L12 12.8111ZM12 15.1611L4 10.3611V19.1611H20V10.3611L12 15.1611ZM12 19.1611H20H4H12Z" fill="#19437D"/>
</svg>
